<?xml version="1.0" standalone="no"?>
<!DOCTYPE svg PUBLIC "-//W3C//DTD SVG 20010904//EN"
 "http://www.w3.org/TR/2001/REC-SVG-20010904/DTD/svg10.dtd">
<svg version="1.0" xmlns="http://www.w3.org/2000/svg"
 width="480.000000pt" height="480.000000pt" viewBox="0 0 480.000000 480.000000"
 preserveAspectRatio="xMidYMid meet">

<g transform="translate(0.000000,480.000000) scale(0.100000,-0.100000)"
fill="#000000" stroke="none">
<path d="M693 4083 l-23 -22 0 -1744 c0 -959 -3 -1771 -6 -1805 -6 -56 -5 -62
19 -86 l26 -26 1439 0 c1379 0 1441 1 1462 18 l23 19 -2 529 -2 529 163 154
c367 348 598 575 598 588 0 8 -73 91 -162 185 -90 94 -188 197 -218 229 -39
42 -63 59 -81 59 -18 0 -61 -33 -160 -124 l-134 -124 -5 804 c-4 711 -7 805
-21 819 -14 14 -164 16 -1455 18 l-1439 2 -22 -22z m2757 -981 l0 -818 -330
-314 -330 -313 -21 -71 c-11 -39 -36 -125 -56 -191 -20 -66 -41 -142 -49 -170
-7 -27 -26 -94 -42 -147 -16 -54 -26 -98 -20 -98 5 0 155 37 333 81 l325 82
95 89 95 90 0 -371 0 -371 -1300 0 -1300 0 0 1670 0 1670 1300 0 1300 0 0
-818z m574 -752 c53 -55 96 -104 96 -108 0 -6 -717 -694 -957 -919 -54 -50
-58 -52 -194 -86 -76 -19 -139 -32 -139 -28 0 3 20 71 43 151 l43 145 79 75
c44 41 127 120 185 176 387 371 731 694 738 694 5 0 53 -45 106 -100z"/>
<path d="M1190 3417 l0 -217 103 0 c78 0 112 5 144 19 50 23 63 45 63 106 0
39 -5 52 -28 73 l-28 25 23 23 c17 17 23 35 23 64 0 85 -38 108 -196 117
l-104 6 0 -216z m198 127 c26 -18 28 -50 5 -76 -12 -13 -30 -18 -70 -18 l-53
0 0 48 c0 27 3 52 7 55 12 13 89 7 111 -9z m12 -174 c24 -24 26 -57 3 -82 -12
-13 -31 -18 -75 -18 l-58 0 0 53 c0 30 3 57 7 60 3 4 28 7 55 7 35 0 54 -6 68
-20z"/>
<path d="M1750 3416 l0 -216 135 0 135 0 0 35 0 35 -90 0 -90 0 -2 178 -3 177
-42 3 -43 3 0 -215z"/>
<path d="M2316 3607 c-61 -34 -91 -101 -90 -197 1 -137 63 -210 179 -210 77 0
120 25 153 90 20 39 23 57 20 136 -3 77 -7 96 -28 127 -50 74 -157 98 -234 54z
m149 -73 c28 -30 40 -94 31 -162 -22 -163 -186 -133 -186 33 0 68 16 121 43
140 34 24 84 19 112 -11z"/>
<path d="M2930 3619 c-64 -26 -99 -83 -107 -177 -9 -110 26 -190 98 -227 44
-23 146 -19 199 8 l45 22 3 88 3 87 -86 0 -85 0 0 -30 c0 -28 2 -30 40 -30
l40 0 0 -40 c0 -34 -4 -42 -26 -50 -43 -17 -72 -11 -106 19 -33 29 -33 30 -33
124 0 87 2 98 24 121 19 20 34 26 68 26 39 0 46 -4 64 -35 18 -31 26 -35 61
-35 36 0 39 2 33 23 -24 77 -79 117 -160 116 -27 0 -61 -5 -75 -10z"/>
</g>
</svg>
