<?xml version="1.0" standalone="no"?>
<!DOCTYPE svg PUBLIC "-//W3C//DTD SVG 20010904//EN"
"http://www.w3.org/TR/2001/REC-SVG-20010904/DTD/svg10.dtd">
<svg version="1.0" xmlns="http://www.w3.org/2000/svg"
    viewBox="0 0 480 480"
    preserveAspectRatio="xMidYMid meet">

<g transform="translate(0.000000,480.000000) scale(0.100000,-0.100000)"
fill="#currentColor" stroke="#currentColor">
<path d="M4174 4596 c-31 -17 -55 -38 -50 -44 5 -5 -100 -139 -113 -144 -7 -3
-54 -58 -184 -217 -29 -35 -72 -87 -97 -117 -25 -30 -65 -79 -90 -109 -25 -31
-66 -80 -92 -109 -27 -29 -48 -56 -48 -61 0 -4 -45 -56 -100 -115 -55 -59
-100 -111 -100 -115 0 -5 -21 -32 -47 -61 -27 -29 -70 -80 -98 -114 -109 -134
-123 -147 -166 -154 -67 -11 -244 -71 -413 -141 -87 -36 -164 -65 -171 -65 -7
0 -103 36 -212 80 -210 84 -406 140 -559 159 -114 14 -424 14 -517 0 -99 -15
-308 -77 -330 -98 -17 -17 -19 -25 -32 -131 -12 -105 -6 -98 -77 -88 -89 13
-176 4 -200 -20 -11 -10 -21 -37 -24 -58 -2 -21 -29 -273 -59 -559 -30 -286
-81 -769 -114 -1072 -33 -304 -57 -563 -54 -575 3 -13 13 -31 21 -40 14 -17
68 -18 866 -18 l851 0 80 -33 80 -32 270 0 270 0 75 30 75 30 859 2 c962 3
889 -3 901 77 4 25 -14 233 -45 516 -28 261 -66 619 -85 795 -19 176 -48 448
-65 603 -16 156 -35 296 -42 310 -21 43 -52 52 -154 47 -50 -2 -98 -7 -106
-10 -12 -5 -17 8 -22 67 -9 89 -24 143 -45 162 -9 8 -70 31 -136 51 -65 20
-121 38 -123 40 -4 3 40 54 233 271 25 28 45 55 45 60 0 5 23 32 50 59 28 27
50 53 50 59 0 5 21 33 48 62 26 29 70 80 97 114 144 176 230 275 277 318 24
22 27 30 22 66 -7 42 -37 86 -60 86 -7 0 -32 23 -57 50 -25 28 -48 50 -53 50
-4 0 -31 21 -60 48 -102 92 -133 108 -170 88z m90 -222 c68 -58 116 -108 116
-121 0 -6 -12 -22 -27 -35 -16 -13 -57 -59 -93 -102 -36 -43 -83 -100 -105
-127 -22 -26 -62 -75 -90 -109 -27 -34 -71 -85 -97 -114 -27 -29 -48 -57 -48
-62 0 -6 -22 -32 -50 -59 -27 -27 -50 -53 -50 -58 0 -5 -44 -58 -97 -118 -100
-110 -112 -124 -300 -354 -58 -71 -129 -158 -157 -191 -28 -34 -76 -92 -106
-130 -97 -120 -163 -182 -204 -189 -20 -4 -36 -10 -36 -14 0 -8 -93 -32 -99
-25 -2 2 -5 44 -7 92 l-3 88 48 50 c43 45 159 182 315 373 34 41 79 95 101
122 22 26 63 75 90 109 28 33 94 110 148 169 53 60 97 113 97 118 0 5 23 31
50 58 28 27 50 54 50 60 0 6 20 31 45 55 25 24 45 48 45 54 0 5 21 33 48 62
26 29 70 80 97 114 127 155 267 319 274 320 2 0 22 -16 45 -36z m-2543 -1278
c110 -21 255 -68 447 -146 l152 -63 0 -874 c0 -564 -3 -872 -10 -868 -17 10
-160 33 -300 47 -84 8 -260 13 -465 13 -376 0 -428 -6 -674 -75 -83 -23 -154
-40 -157 -37 -6 5 10 159 117 1152 27 259 58 545 68 637 9 92 20 170 23 173 9
10 142 45 204 55 93 14 494 5 595 -14z m2068 -10 c51 -13 94 -25 96 -28 2 -2
34 -280 70 -618 65 -604 145 -1354 145 -1356 0 -1 -67 18 -149 41 -262 76
-300 80 -691 80 -350 0 -579 -16 -722 -49 l-58 -13 0 871 0 871 181 73 c100
40 183 71 186 68 5 -4 -105 -138 -152 -185 -21 -21 -24 -31 -19 -70 3 -25 5
-124 5 -219 0 -151 2 -174 16 -179 9 -4 18 -2 21 5 2 6 28 16 58 23 30 7 54
15 54 19 0 4 15 11 33 14 17 3 44 12 59 20 15 8 42 17 60 21 18 4 38 11 43 15
6 4 26 12 45 19 57 19 90 35 90 44 0 5 35 49 78 97 42 48 100 116 129 151 260
318 252 309 293 309 21 0 79 -11 129 -24z m-3082 -302 c18 -3 22 -9 18 -32 -3
-15 -21 -175 -40 -357 -19 -181 -55 -517 -79 -745 -25 -228 -50 -469 -57 -535
-12 -111 -15 -125 -52 -185 -21 -36 -54 -84 -72 -105 -30 -36 -33 -37 -29 -15
2 14 49 450 104 970 55 520 103 962 106 983 6 41 7 41 101 21z m3493 3 c0 -7
47 -453 105 -992 58 -539 105 -984 105 -989 0 -19 -42 30 -89 103 l-49 76 -96
895 c-52 491 -93 896 -91 899 5 4 66 16 103 20 6 0 12 -5 12 -12z m-2179
-1758 l116 -12 -67 -63 c-48 -45 -75 -81 -94 -124 l-27 -60 -680 0 -680 0 26
43 c15 23 32 54 38 68 9 24 27 31 192 78 167 46 294 73 400 85 80 8 663 -3
776 -15z m1559 11 c129 -15 217 -34 400 -87 85 -25 155 -46 156 -46 0 -1 19
-33 42 -70 23 -38 42 -70 42 -73 0 -6 -617 -5 -1016 3 l-351 6 -19 50 c-21 55
-79 126 -136 168 l-38 27 96 7 c54 4 108 10 121 14 43 11 606 13 703 1z
m-1004 -165 c60 -30 87 -56 108 -107 17 -44 11 -50 -59 -62 -99 -16 -491 -4
-511 17 -9 8 34 92 57 113 58 53 96 63 230 64 114 0 130 -2 175 -25z"/>
</g>
</svg>
